# File created by Blade
# Date/Time:  Wed Jan 21 14:58:10 2015
# Frame Rate: 120.000 fps
#------------------------------------------------------
:FULLY-SPECIFIED
:DEGREES
186
root 17.178864 35.104977 -23.343570 -164.784910 -54.894421 -189.787821
Spine -27.782564 36.480048 -19.369320
Head 17.081450 17.987653 6.618758
LeftShoulder -16.189347 -29.375869 23.532052
LeftArm -8.804391 2.937532 -5.584698
LeftForeArm 16.816398 -0.000000 -4.163326
LeftHand -6.483465 -0.000000 -8.294718
LeftHandThumb1 -26.253704 0.000000 33.147579
RightShoulder -3.339918 2.159745 -14.736232
RightArm 16.394301 25.270570 15.062947
RightForeArm -35.512851 -0.000000 6.339923
RightHand -5.547987 -0.000000 10.064400
RightHandThumb1 -24.326973 -0.000000 -32.862282
LeftUpLeg -12.658588 -27.747838 4.734648
LeftLeg -2.139055 -0.000000 0.000000
LeftFoot -12.377735 10.266314 -12.276180
LeftToeBase 29.919922 -0.000000 -0.000000
RightUpLeg 9.152378 -32.723570 -3.409208
RightLeg -3.588305 -0.000000 0.000000
RightFoot -35.997412 -41.344056 30.277200
RightToeBase 20.233382 -0.000000 -0.000000
187
root 17.182069 35.105174 -23.337118 -164.599261 -55.171954 -189.906823
Spine -27.891691 36.657225 -19.476647
Head 17.062405 18.118643 6.497861
LeftShoulder -16.188882 -29.319802 23.461372
LeftArm -8.946067 3.014057 -5.651694
LeftForeArm 16.983521 0.000000 -4.168649
LeftHand -6.545110 0.000000 -8.139852
LeftHandThumb1 -26.253704 0.000000 33.147579
RightShoulder -3.078532 2.162694 -14.750883
RightArm 16.540797 24.951616 15.078270
RightForeArm -35.372964 -0.000000 6.219253
RightHand -5.505320 -0.000000 9.982472
RightHandThumb1 -24.326973 -0.000000 -32.862282
LeftUpLeg -12.850439 -27.843804 4.767211
LeftLeg -2.068104 -0.000000 0.000000
LeftFoot -12.311577 10.115508 -12.318281
LeftToeBase 29.918334 -0.000000 -0.000000
RightUpLeg 9.071507 -32.851722 -3.352054
RightLeg -3.558262 -0.000000 0.000000
RightFoot -36.060823 -41.427001 30.330119
RightToeBase 20.214217 -0.000000 -0.000000
188
root 17.184037 35.104633 -23.334107 -164.437230 -55.475306 -190.023569
Spine -27.953268 36.835087 -19.557724
Head 17.009870 18.219557 6.347776
LeftShoulder -16.166918 -29.281895 23.377332
LeftArm -9.072294 2.793140 -5.654391
LeftForeArm 17.322141 0.000000 -4.201709
LeftHand -6.573997 -0.000000 -8.055248
LeftHandThumb1 -26.253704 0.000000 33.147579
RightShoulder -2.866675 2.140365 -14.811399
RightArm 16.702062 24.754254 15.200862
RightForeArm -35.332455 -0.000000 6.204448
RightHand -5.577720 -0.000000 9.952797
RightHandThumb1 -24.326973 -0.000000 -32.862282
LeftUpLeg -13.006914 -28.010155 4.809215
LeftLeg -2.025319 -0.000000 0.000000
LeftFoot -12.248165 10.033066 -12.341973
LeftToeBase 29.910233 -0.000000 -0.000000
RightUpLeg 9.035905 -32.988609 -3.302150
RightLeg -3.541122 -0.000000 0.000000
RightFoot -36.194839 -41.515951 30.506171
RightToeBase 20.244092 -0.000000 -0.000000
189
root 17.185571 35.104054 -23.332315 -164.295735 -55.773856 -190.135273
Spine -28.002695 37.034663 -19.635358
Head 16.954055 18.332560 6.212988
LeftShoulder -16.107421 -29.317614 23.284195
LeftArm -9.241006 2.709855 -5.638768
LeftForeArm 17.625517 -0.000000 -4.187734
LeftHand -6.604205 -0.000000 -7.924848
LeftHandThumb1 -26.253704 0.000000 33.147579
RightShoulder -2.641016 2.165219 -14.898016
RightArm 16.808702 24.548817 15.352070
RightForeArm -35.292534 0.000000 6.204781
RightHand -5.521677 -0.000000 9.899206
RightHandThumb1 -24.326973 -0.000000 -32.862282
LeftUpLeg -13.126538 -28.230776 4.855725
LeftLeg -2.019177 -0.000000 0.000000
LeftFoot -12.175394 10.022126 -12.387791
LeftToeBase 29.863747 -0.000000 -0.000000
RightUpLeg 9.030821 -33.136752 -3.264675
RightLeg -3.537256 -0.000000 0.000000
RightFoot -36.272178 -41.564698 30.605965
RightToeBase 20.151980 -0.000000 -0.000000
